<svg width="28" height="29" viewBox="0 0 28 29" fill="none" xmlns="http://www.w3.org/2000/svg">
<path fill-rule="evenodd" clip-rule="evenodd" d="M13.4166 3.70846C7.77868 3.70846 3.20825 8.27888 3.20825 13.9168C3.20825 19.5547 7.77868 24.1251 13.4166 24.1251C19.0545 24.1251 23.6249 19.5547 23.6249 13.9168C23.6249 8.27888 19.0545 3.70846 13.4166 3.70846ZM1.45825 13.9168C1.45825 7.31239 6.81218 1.95846 13.4166 1.95846C20.021 1.95846 25.3749 7.31239 25.3749 13.9168C25.3749 16.9041 24.2796 19.6355 22.4686 21.7314L26.2853 25.5481C26.627 25.8898 26.627 26.4438 26.2853 26.7855C25.9436 27.1272 25.3896 27.1272 25.0479 26.7855L21.2312 22.9688C19.1353 24.7798 16.4038 25.8751 13.4166 25.8751C6.81218 25.8751 1.45825 20.5212 1.45825 13.9168Z" fill="white"/>
</svg>
